<svg width="20" height="20" viewBox="0 0 20 20" fill="none" xmlns="http://www.w3.org/2000/svg">
<path d="M18.2298 6.01673L12.2369 0.763019C11.6876 0.271652 10.9764 0 10.2393 0C9.50229 0 8.79109 0.271652 8.24173 0.763019L2.2489 6.01673C1.93165 6.30047 1.67848 6.64853 1.50626 7.03776C1.33404 7.42698 1.24671 7.84842 1.25009 8.27403V17.0036C1.25009 17.7983 1.56579 18.5604 2.12772 19.1224C2.68966 19.6843 3.45181 20 4.24651 20H16.2322C17.0269 20 17.789 19.6843 18.351 19.1224C18.9129 18.5604 19.2286 17.7983 19.2286 17.0036V8.26404C19.2305 7.84011 19.1425 7.42059 18.9704 7.0332C18.7982 6.6458 18.5458 6.29935 18.2298 6.01673ZM12.2369 18.0024H8.24173V13.0084C8.24173 12.7435 8.34696 12.4894 8.53427 12.3021C8.72158 12.1148 8.97563 12.0096 9.24053 12.0096H11.2381C11.503 12.0096 11.7571 12.1148 11.9444 12.3021C12.1317 12.4894 12.2369 12.7435 12.2369 13.0084V18.0024ZM17.231 17.0036C17.231 17.2685 17.1257 17.5225 16.9384 17.7098C16.7511 17.8972 16.4971 18.0024 16.2322 18.0024H14.2346V13.0084C14.2346 12.2137 13.9189 11.4515 13.3569 10.8896C12.795 10.3276 12.0328 10.012 11.2381 10.012H9.24053C8.44583 10.012 7.68368 10.3276 7.12175 10.8896C6.55981 11.4515 6.24412 12.2137 6.24412 13.0084V18.0024H4.24651C3.98161 18.0024 3.72756 17.8972 3.54025 17.7098C3.35294 17.5225 3.2477 17.2685 3.2477 17.0036V8.26404C3.24788 8.12223 3.27826 7.98208 3.33682 7.85291C3.39537 7.72375 3.48076 7.60854 3.5873 7.51494L9.58013 2.27121C9.7624 2.11109 9.99672 2.02278 10.2393 2.02278C10.482 2.02278 10.7163 2.11109 10.8985 2.27121L16.8914 7.51494C16.9979 7.60854 17.0833 7.72375 17.1419 7.85291C17.2004 7.98208 17.2308 8.12223 17.231 8.26404V17.0036Z" fill="url(#paint0_linear_106_324)"/>
    <defs>
        <linearGradient id="paint0_linear_106_324" x1="1.25" y1="10.2857" x2="19.2286" y2="10.2857" gradientUnits="userSpaceOnUse">
            <stop stop-color="#3E79E5"/>
            <stop offset="1" stop-color="#01B8E3"/>
        </linearGradient>
    </defs>
</svg>
