<svg width="20" height="20" viewBox="0 0 20 20" fill="none" xmlns="http://www.w3.org/2000/svg">
<path fill-rule="evenodd" clip-rule="evenodd" d="M10.3159 2C8.01223 2 6.12032 3.8673 6.09017 6.17073C6.06002 8.47416 7.90303 10.3415 10.2067 10.3415C12.5103 10.3415 14.4022 8.47416 14.4323 6.17073C14.4625 3.8673 12.6195 2 10.3159 2ZM7.75363 6.17073C7.77175 4.78592 8.90915 3.66331 10.2941 3.66331C11.679 3.66331 12.787 4.78592 12.7689 6.17073C12.7508 7.55554 11.6134 8.67814 10.2284 8.67814C8.84351 8.67814 7.7355 7.55554 7.75363 6.17073ZM7.83272 11.6231C5.20381 11.6231 3.04477 13.754 3.01036 16.3827L3.00007 17.1683C2.99406 17.6276 3.36154 17.9999 3.82087 17.9999C4.2802 17.9999 4.65743 17.6276 4.66344 17.1683L4.67372 16.3827C4.69611 14.6726 6.10069 13.2863 7.81094 13.2863H12.525C14.2352 13.2863 15.6035 14.6726 15.5811 16.3827L15.5709 17.1683C15.5648 17.6276 15.9323 17.9999 16.3916 17.9999C16.851 17.9999 17.2282 17.6276 17.2342 17.1683L17.2445 16.3827C17.2789 13.754 15.1757 11.6231 12.5468 11.6231H7.83272Z" fill="url(#paint0_linear_106_324)"/>
    <defs>
        <linearGradient id="paint0_linear_106_324" x1="1.25" y1="10.2857" x2="19.2286" y2="10.2857" gradientUnits="userSpaceOnUse">
            <stop stop-color="#3E79E5"/>
            <stop offset="1" stop-color="#01B8E3"/>
        </linearGradient>
    </defs>
</svg>
