<svg width="20" height="20" viewBox="0 0 20 20" fill="none" xmlns="http://www.w3.org/2000/svg">
<path d="M10 1.66667C5.4 1.66667 1.66666 5.40001 1.66666 10C1.66666 14.6 5.4 18.3333 10 18.3333C14.6 18.3333 18.3333 14.6 18.3333 10C18.3333 5.40001 14.6 1.66667 10 1.66667ZM10.7333 14.8V15.8333H9.275V14.7583C8.65833 14.6083 7.28333 14.1167 6.75833 12.2917L8.13333 11.7333C8.18333 11.9167 8.61666 13.475 10.1333 13.475C10.9083 13.475 11.7833 13.075 11.7833 12.1333C11.7833 11.3333 11.2 10.9167 9.88333 10.4417C8.96666 10.1167 7.09166 9.58334 7.09166 7.68334C7.09166 7.60001 7.1 5.68334 9.275 5.21667V4.16667H10.7333V5.20001C12.2667 5.46667 12.825 6.69167 12.95 7.05834L11.6333 7.61667C11.5417 7.32501 11.1417 6.50001 10.05 6.50001C9.46666 6.50001 8.54166 6.80834 8.54166 7.65834C8.54166 8.45001 9.25833 8.75001 10.7417 9.24167C12.7417 9.93334 13.25 10.95 13.25 12.1167C13.25 14.3083 11.1667 14.725 10.7333 14.8Z" fill="#A4B4CB"/>
</svg>
